<svg width="317" height="327" viewBox="0 0 317 327" fill="none" xmlns="http://www.w3.org/2000/svg">
<rect x="31.8418" y="26.4033" width="250.231" height="261.263" fill="#2274AC"/>
<circle cx="202.151" cy="170.96" r="49.7569" transform="rotate(120 202.151 170.96)" fill="#E8E8EF"/>
<circle cx="202.454" cy="170.434" r="28.6786" transform="rotate(120 202.454 170.434)" fill="#2274AC"/>
<rect x="279.783" y="152.437" width="112.08" height="53.7532" transform="rotate(120 279.783 152.437)" fill="#2274AC"/>
<circle cx="202.454" cy="170.434" r="17.3288" transform="rotate(120 202.454 170.434)" fill="#E8E8EF"/>
<circle cx="159.957" cy="99.9386" r="49.7569" fill="#E8E8EF"/>
<circle cx="159.349" cy="99.9384" r="28.6786" fill="#2274AC"/>
<rect x="105.029" y="50.0815" width="112.08" height="45.3994" fill="#2274AC"/>
<circle cx="159.348" cy="99.9387" r="17.3288" fill="#E8E8EF"/>
<path d="M89.1532 127.735C112.952 113.995 143.382 122.149 157.122 145.947C170.862 169.746 162.708 200.176 138.91 213.916C115.112 227.656 84.6809 219.503 70.9409 195.704C57.2009 171.906 65.3548 141.475 89.1532 127.735Z" fill="#E8E8EF"/>
<circle cx="114.335" cy="171.353" r="28.6786" transform="rotate(-120 114.335 171.353)" fill="#2274AC"/>
<rect x="98.3525" y="243.183" width="112.08" height="45.3994" transform="rotate(-120 98.3525 243.183)" fill="#2274AC"/>
<circle cx="114.447" cy="171.288" r="17.3288" transform="rotate(-120 114.447 171.288)" fill="#E8E8EF"/>
<ellipse cx="114.367" cy="171.368" rx="6.83014" ry="6.72665" transform="rotate(-120 114.367 171.368)" fill="#2274AC"/>
<ellipse cx="202.323" cy="170.472" rx="6.83014" ry="6.72665" transform="rotate(-120 202.323 170.472)" fill="#2274AC"/>
<ellipse cx="159.628" cy="99.9316" rx="6.83014" ry="6.72665" transform="rotate(-120 159.628 99.9316)" fill="#2274AC"/>
<path d="M97.0431 232.182H103.574L109.113 245.69H109.369L114.909 232.182H121.439V254H116.304V240.598H116.123L110.882 253.862H107.601L102.359 240.523H102.178V254H97.0431V232.182ZM127.842 254.277C126.798 254.277 125.871 254.103 125.061 253.755C124.258 253.4 123.623 252.867 123.154 252.157C122.692 251.44 122.462 250.541 122.462 249.462C122.462 248.553 122.621 247.786 122.941 247.161C123.261 246.536 123.701 246.028 124.262 245.637C124.823 245.246 125.469 244.952 126.201 244.753C126.932 244.547 127.714 244.408 128.545 244.337C129.475 244.252 130.224 244.163 130.793 244.071C131.361 243.972 131.773 243.833 132.028 243.656C132.291 243.471 132.423 243.212 132.423 242.878V242.825C132.423 242.278 132.234 241.855 131.858 241.557C131.481 241.259 130.974 241.109 130.334 241.109C129.646 241.109 129.092 241.259 128.673 241.557C128.254 241.855 127.987 242.267 127.874 242.793L123.069 242.622C123.211 241.628 123.577 240.74 124.166 239.959C124.763 239.17 125.58 238.553 126.616 238.105C127.66 237.651 128.914 237.423 130.377 237.423C131.421 237.423 132.383 237.548 133.264 237.796C134.145 238.038 134.912 238.393 135.565 238.862C136.219 239.323 136.723 239.891 137.078 240.566C137.44 241.241 137.621 242.011 137.621 242.878V254H132.721V251.72H132.593C132.302 252.274 131.929 252.743 131.474 253.126C131.027 253.51 130.498 253.798 129.887 253.989C129.283 254.181 128.602 254.277 127.842 254.277ZM129.45 250.868C130.011 250.868 130.516 250.754 130.963 250.527C131.418 250.3 131.78 249.987 132.05 249.589C132.32 249.185 132.455 248.716 132.455 248.183V246.628C132.305 246.706 132.124 246.777 131.911 246.841C131.705 246.905 131.478 246.965 131.229 247.022C130.981 247.079 130.725 247.129 130.462 247.171C130.2 247.214 129.947 247.253 129.706 247.288C129.216 247.366 128.797 247.487 128.449 247.651C128.108 247.814 127.845 248.027 127.66 248.29C127.483 248.545 127.394 248.851 127.394 249.206C127.394 249.746 127.586 250.158 127.969 250.442C128.36 250.726 128.854 250.868 129.45 250.868ZM144.516 244.668V254H139.307V237.636H144.261V240.641H144.442C144.804 239.639 145.422 238.854 146.295 238.286C147.169 237.711 148.209 237.423 149.417 237.423C150.567 237.423 151.565 237.683 152.41 238.201C153.263 238.712 153.923 239.43 154.392 240.353C154.868 241.269 155.102 242.342 155.095 243.57V254H149.886V244.593C149.893 243.684 149.662 242.974 149.193 242.462C148.731 241.951 148.089 241.695 147.265 241.695C146.718 241.695 146.235 241.816 145.816 242.058C145.404 242.292 145.084 242.629 144.857 243.07C144.637 243.51 144.523 244.043 144.516 244.668ZM164.47 254.309C162.758 254.309 161.281 253.972 160.038 253.297C158.802 252.615 157.85 251.646 157.183 250.388C156.522 249.124 156.192 247.622 156.192 245.882C156.192 244.192 156.526 242.714 157.193 241.45C157.861 240.179 158.802 239.192 160.016 238.489C161.231 237.778 162.662 237.423 164.31 237.423C165.475 237.423 166.54 237.604 167.506 237.967C168.472 238.329 169.306 238.865 170.009 239.575C170.712 240.286 171.259 241.163 171.65 242.207C172.041 243.244 172.236 244.433 172.236 245.776V247.075H158.014V244.05H167.389C167.382 243.496 167.25 243.002 166.994 242.569C166.739 242.136 166.387 241.798 165.94 241.557C165.499 241.308 164.992 241.184 164.416 241.184C163.834 241.184 163.312 241.315 162.85 241.578C162.389 241.834 162.023 242.185 161.753 242.633C161.483 243.073 161.341 243.574 161.327 244.135V247.214C161.327 247.881 161.458 248.467 161.721 248.972C161.984 249.469 162.357 249.856 162.84 250.133C163.323 250.41 163.898 250.548 164.565 250.548C165.027 250.548 165.446 250.484 165.823 250.357C166.199 250.229 166.522 250.04 166.792 249.792C167.062 249.543 167.264 249.238 167.399 248.876L172.183 249.014C171.984 250.087 171.547 251.021 170.872 251.816C170.205 252.604 169.328 253.219 168.241 253.659C167.154 254.092 165.897 254.309 164.47 254.309ZM178.01 254.277C176.966 254.277 176.039 254.103 175.229 253.755C174.426 253.4 173.791 252.867 173.322 252.157C172.86 251.44 172.63 250.541 172.63 249.462C172.63 248.553 172.789 247.786 173.109 247.161C173.429 246.536 173.869 246.028 174.43 245.637C174.991 245.246 175.637 244.952 176.369 244.753C177.1 244.547 177.882 244.408 178.713 244.337C179.643 244.252 180.392 244.163 180.961 244.071C181.529 243.972 181.941 243.833 182.196 243.656C182.459 243.471 182.591 243.212 182.591 242.878V242.825C182.591 242.278 182.402 241.855 182.026 241.557C181.649 241.259 181.142 241.109 180.502 241.109C179.814 241.109 179.26 241.259 178.841 241.557C178.421 241.855 178.155 242.267 178.042 242.793L173.237 242.622C173.379 241.628 173.745 240.74 174.334 239.959C174.931 239.17 175.747 238.553 176.784 238.105C177.828 237.651 179.082 237.423 180.545 237.423C181.589 237.423 182.551 237.548 183.432 237.796C184.313 238.038 185.08 238.393 185.733 238.862C186.387 239.323 186.891 239.891 187.246 240.566C187.608 241.241 187.789 242.011 187.789 242.878V254H182.889V251.72H182.761C182.47 252.274 182.097 252.743 181.642 253.126C181.195 253.51 180.666 253.798 180.055 253.989C179.451 254.181 178.769 254.277 178.01 254.277ZM179.618 250.868C180.179 250.868 180.684 250.754 181.131 250.527C181.586 250.3 181.948 249.987 182.218 249.589C182.488 249.185 182.622 248.716 182.622 248.183V246.628C182.473 246.706 182.292 246.777 182.079 246.841C181.873 246.905 181.646 246.965 181.397 247.022C181.149 247.079 180.893 247.129 180.63 247.171C180.368 247.214 180.115 247.253 179.874 247.288C179.384 247.366 178.965 247.487 178.617 247.651C178.276 247.814 178.013 248.027 177.828 248.29C177.651 248.545 177.562 248.851 177.562 249.206C177.562 249.746 177.754 250.158 178.137 250.442C178.528 250.726 179.022 250.868 179.618 250.868ZM203.761 242.633L198.978 242.761C198.928 242.42 198.793 242.118 198.573 241.855C198.353 241.585 198.065 241.376 197.71 241.227C197.362 241.07 196.957 240.992 196.495 240.992C195.892 240.992 195.377 241.113 194.951 241.354C194.532 241.596 194.326 241.923 194.333 242.335C194.326 242.654 194.453 242.931 194.716 243.165C194.986 243.4 195.466 243.588 196.154 243.73L199.308 244.327C200.941 244.639 202.156 245.158 202.951 245.882C203.754 246.607 204.159 247.565 204.166 248.759C204.159 249.881 203.825 250.857 203.164 251.688C202.511 252.519 201.616 253.165 200.48 253.627C199.343 254.082 198.044 254.309 196.581 254.309C194.244 254.309 192.401 253.83 191.051 252.871C189.709 251.905 188.942 250.612 188.75 248.993L193.896 248.865C194.01 249.462 194.304 249.916 194.78 250.229C195.256 250.541 195.863 250.697 196.602 250.697C197.269 250.697 197.813 250.573 198.232 250.325C198.651 250.076 198.864 249.746 198.871 249.334C198.864 248.964 198.701 248.67 198.381 248.45C198.061 248.222 197.561 248.045 196.879 247.917L194.024 247.374C192.383 247.075 191.162 246.525 190.359 245.722C189.556 244.913 189.159 243.883 189.166 242.633C189.159 241.539 189.45 240.605 190.039 239.831C190.629 239.05 191.467 238.453 192.554 238.041C193.64 237.629 194.922 237.423 196.399 237.423C198.615 237.423 200.363 237.888 201.641 238.819C202.919 239.742 203.626 241.013 203.761 242.633ZM208.416 260.136C207.791 260.136 207.201 260.087 206.648 259.987C206.094 259.895 205.618 259.771 205.22 259.614L206.371 255.832C206.882 256.003 207.344 256.102 207.755 256.131C208.175 256.159 208.533 256.092 208.831 255.928C209.137 255.772 209.371 255.491 209.535 255.087L209.737 254.597L203.92 237.636H209.375L212.39 249.312H212.56L215.618 237.636H221.104L214.936 255.566C214.638 256.461 214.215 257.249 213.668 257.931C213.128 258.62 212.429 259.16 211.569 259.55C210.717 259.941 209.666 260.136 208.416 260.136Z" fill="#E8E8EF"/>
<path d="M158.167 149.636C158.167 149.636 144.983 149.367 134.893 143.044C123.054 138.066 114.537 121.242 114.806 120.973C115.075 120.704 126.552 122.998 138.122 129.052C151.844 136.586 158.167 149.636 158.167 149.636Z" fill="#2274AC"/>
<path d="M204.984 121.249C204.849 121.115 202.562 132.012 186.822 141.833C172.427 151.654 157.09 149.636 157.09 149.636C157.09 149.636 161.261 139.277 174.714 129.187C190.454 119.635 204.984 121.249 204.984 121.249Z" fill="#2274AC"/>
<path d="M164.221 173.459C164.221 186.451 158.121 194.298 158.121 194.298C158.121 194.298 151.306 186.835 151.306 173.459C151.306 160.082 157.277 148.832 157.567 148.562C157.771 148.371 164.221 159.522 164.221 173.459Z" fill="#2274AC"/>
</svg>
