<svg width="238" height="220" viewBox="0 0 238 220" fill="none" xmlns="http://www.w3.org/2000/svg">
<path d="M238 0H0V220H238V0Z" fill="#2274AC"/>
<path d="M117.059 96.0816C103.319 119.88 111.473 150.311 135.271 164.051C159.07 177.791 189.501 169.637 203.241 145.839C216.981 122.04 208.827 91.6093 185.028 77.8694C161.23 64.1294 130.799 72.2833 117.059 96.0816Z" fill="#E8E8EF"/>
<path d="M135.619 106.095C127.699 119.812 132.399 137.351 146.116 145.271C159.833 153.19 177.372 148.49 185.292 134.773C193.211 121.057 188.511 103.517 174.794 95.5977C161.078 87.6783 143.538 92.3781 135.619 106.095Z" fill="#2274AC"/>
<path d="M181.743 199.501L237.783 102.437L191.232 75.5604L135.192 172.625L181.743 199.501Z" fill="#2274AC"/>
<path d="M145.447 111.77C140.662 120.058 143.501 130.656 151.789 135.441C160.078 140.226 170.676 137.387 175.461 129.098C180.246 120.81 177.407 110.212 169.118 105.427C160.83 100.642 150.232 103.481 145.447 111.77Z" fill="#E8E8EF"/>
<path d="M117.958 99.6952C145.438 99.6952 167.715 77.4183 167.715 49.9383C167.715 22.4583 145.438 0.181396 117.958 0.181396C90.4781 0.181396 68.2012 22.4583 68.2012 49.9383C68.2012 77.4183 90.4781 99.6952 117.958 99.6952Z" fill="#E8E8EF"/>
<path d="M117.35 78.6167C133.189 78.6167 146.029 65.7769 146.029 49.9381C146.029 34.0994 133.189 21.2595 117.35 21.2595C101.511 21.2595 88.6714 34.0994 88.6714 49.9381C88.6714 65.7769 101.511 78.6167 117.35 78.6167Z" fill="#2274AC"/>
<path d="M175.11 0.0812988H63.0298V45.4807H175.11V0.0812988Z" fill="#2274AC"/>
<path d="M117.35 67.2672C126.92 67.2672 134.679 59.5089 134.679 49.9384C134.679 40.368 126.92 32.6096 117.35 32.6096C107.779 32.6096 100.021 40.368 100.021 49.9384C100.021 59.5089 107.779 67.2672 117.35 67.2672Z" fill="#E8E8EF"/>
<path d="M47.1529 77.735C70.9512 63.995 101.382 72.149 115.122 95.947C128.862 119.745 120.708 150.176 96.9102 163.916C73.1112 177.656 42.6806 169.502 28.9406 145.704C15.2006 121.906 23.3545 91.475 47.1529 77.735Z" fill="#E8E8EF"/>
<path d="M97.1714 107.013C89.252 93.2958 71.7125 88.5961 57.9957 96.5155C44.2789 104.435 39.5792 121.974 47.4986 135.691C55.418 149.408 72.9575 154.108 86.6743 146.188C100.391 138.269 105.091 120.729 97.1714 107.013Z" fill="#2274AC"/>
<path d="M0.312542 96.119L56.3525 193.183L95.6696 170.483L39.6296 73.4193L0.312542 96.119Z" fill="#2274AC"/>
<path d="M87.454 112.623C82.6687 104.334 72.0706 101.495 63.7824 106.28C55.4941 111.065 52.6544 121.663 57.4396 129.951C62.2248 138.24 72.8229 141.079 81.1112 136.294C89.3994 131.509 92.2392 120.911 87.454 112.623Z" fill="#E8E8EF"/>
<path d="M78.1924 118.004C76.3063 114.737 72.1692 113.595 68.9519 115.452C65.7345 117.31 64.6554 121.464 66.5415 124.73C68.4276 127.997 72.5647 129.14 75.782 127.282C78.9993 125.425 80.0785 121.271 78.1924 118.004Z" fill="#2274AC"/>
<path d="M166.148 117.109C164.262 113.842 160.125 112.7 156.908 114.557C153.691 116.415 152.611 120.569 154.498 123.835C156.384 127.102 160.521 128.245 163.738 126.387C166.955 124.53 168.035 120.376 166.148 117.109Z" fill="#2274AC"/>
<path d="M123.454 46.568C121.568 43.3012 117.43 42.1587 114.213 44.0162C110.996 45.8738 109.917 50.0278 111.803 53.2946C113.689 56.5614 117.826 57.7039 121.043 55.8464C124.261 53.9889 125.34 49.8348 123.454 46.568Z" fill="#2274AC"/>
<path d="M55.0435 182.182H61.5739L67.1139 195.69H67.3699L72.9089 182.182H79.4399V204H74.3049V190.598H74.1239L68.8819 203.861H65.6009L60.3599 190.523H60.1789V204H55.0435V182.182ZM85.8419 204.277C84.7979 204.277 83.8709 204.103 83.0619 203.755C82.2589 203.4 81.6229 202.867 81.1549 202.157C80.6929 201.439 80.4619 200.541 80.4619 199.461C80.4619 198.552 80.6219 197.785 80.9419 197.16C81.2609 196.535 81.7009 196.027 82.2629 195.637C82.8239 195.246 83.4699 194.951 84.2009 194.753C84.9329 194.547 85.7139 194.408 86.5449 194.337C87.4759 194.252 88.2249 194.163 88.7929 194.071C89.3609 193.971 89.7729 193.833 90.0289 193.655C90.2919 193.471 90.4229 193.211 90.4229 192.878V192.824C90.4229 192.277 90.2349 191.855 89.8579 191.557C89.4819 191.258 88.9739 191.109 88.3349 191.109C87.6459 191.109 87.0919 191.258 86.6729 191.557C86.2539 191.855 85.9879 192.267 85.8739 192.792L81.0689 192.622C81.2109 191.628 81.5769 190.74 82.1669 189.959C82.7629 189.17 83.5799 188.552 84.6169 188.105C85.6609 187.65 86.9149 187.423 88.3779 187.423C89.4219 187.423 90.3839 187.547 91.2649 187.796C92.1449 188.037 92.9118 188.393 93.5658 188.861C94.2188 189.323 94.7228 189.891 95.0788 190.566C95.4408 191.241 95.6218 192.011 95.6218 192.878V204H90.7208V201.72H90.5929C90.3019 202.274 89.9289 202.743 89.4749 203.126C89.0269 203.51 88.4979 203.797 87.8879 203.989C87.2839 204.181 86.6019 204.277 85.8419 204.277ZM87.4509 200.868C88.0119 200.868 88.5159 200.754 88.9639 200.527C89.4179 200.299 89.7799 199.987 90.0499 199.589C90.3199 199.184 90.4549 198.716 90.4549 198.183V196.628C90.3059 196.706 90.1249 196.777 89.9119 196.841C89.7059 196.905 89.4779 196.965 89.2299 197.022C88.9809 197.079 88.7259 197.128 88.4629 197.171C88.1999 197.214 87.9478 197.253 87.7058 197.288C87.2158 197.366 86.7969 197.487 86.4489 197.65C86.1079 197.814 85.8459 198.027 85.6609 198.29C85.4829 198.545 85.3949 198.851 85.3949 199.206C85.3949 199.745 85.5859 200.157 85.9699 200.442C86.3609 200.726 86.8539 200.868 87.4509 200.868ZM102.517 194.667V204H97.3069V187.636H102.261V190.64H102.442C102.804 189.639 103.422 188.854 104.296 188.286C105.169 187.711 106.21 187.423 107.417 187.423C108.568 187.423 109.566 187.682 110.411 188.201C111.263 188.712 111.924 189.429 112.392 190.353C112.868 191.269 113.103 192.341 113.096 193.57V204H107.886V194.593C107.893 193.684 107.662 192.973 107.194 192.462C106.732 191.951 106.089 191.695 105.265 191.695C104.718 191.695 104.236 191.816 103.817 192.057C103.405 192.292 103.085 192.629 102.858 193.069C102.638 193.51 102.524 194.042 102.517 194.667ZM122.47 204.309C120.758 204.309 119.281 203.971 118.038 203.297C116.802 202.615 115.851 201.645 115.183 200.388C114.523 199.124 114.192 197.622 114.192 195.882C114.192 194.192 114.526 192.714 115.194 191.45C115.861 190.179 116.802 189.192 118.017 188.488C119.231 187.778 120.663 187.423 122.31 187.423C123.475 187.423 124.54 187.604 125.506 187.966C126.472 188.329 127.307 188.865 128.01 189.575C128.713 190.285 129.26 191.162 129.65 192.206C130.041 193.243 130.236 194.433 130.236 195.775V197.075H116.014V194.049H125.389C125.382 193.495 125.251 193.002 124.995 192.569C124.739 192.135 124.388 191.798 123.94 191.557C123.5 191.308 122.992 191.184 122.417 191.184C121.834 191.184 121.312 191.315 120.851 191.578C120.389 191.834 120.023 192.185 119.753 192.633C119.484 193.073 119.342 193.574 119.327 194.135V197.214C119.327 197.881 119.459 198.467 119.722 198.971C119.984 199.469 120.357 199.856 120.84 200.133C121.323 200.41 121.898 200.548 122.566 200.548C123.028 200.548 123.447 200.484 123.823 200.356C124.199 200.228 124.523 200.04 124.793 199.792C125.062 199.543 125.265 199.238 125.4 198.875L130.183 199.014C129.984 200.086 129.548 201.02 128.873 201.816C128.205 202.604 127.328 203.219 126.241 203.659C125.155 204.092 123.898 204.309 122.47 204.309ZM136.01 204.277C134.966 204.277 134.039 204.103 133.229 203.755C132.427 203.4 131.791 202.867 131.323 202.157C130.861 201.439 130.63 200.541 130.63 199.461C130.63 198.552 130.79 197.785 131.109 197.16C131.429 196.535 131.869 196.027 132.43 195.637C132.992 195.246 133.638 194.951 134.369 194.753C135.101 194.547 135.882 194.408 136.713 194.337C137.644 194.252 138.393 194.163 138.961 194.071C139.529 193.971 139.941 193.833 140.197 193.655C140.46 193.471 140.591 193.211 140.591 192.878V192.824C140.591 192.277 140.403 191.855 140.026 191.557C139.65 191.258 139.142 191.109 138.503 191.109C137.814 191.109 137.26 191.258 136.841 191.557C136.422 191.855 136.156 192.267 136.042 192.792L131.237 192.622C131.379 191.628 131.745 190.74 132.335 189.959C132.931 189.17 133.748 188.552 134.785 188.105C135.829 187.65 137.082 187.423 138.546 187.423C139.59 187.423 140.552 187.547 141.433 187.796C142.313 188.037 143.08 188.393 143.734 188.861C144.387 189.323 144.891 189.891 145.247 190.566C145.609 191.241 145.79 192.011 145.79 192.878V204H140.889V201.72H140.761C140.47 202.274 140.097 202.743 139.643 203.126C139.195 203.51 138.666 203.797 138.055 203.989C137.452 204.181 136.77 204.277 136.01 204.277ZM137.619 200.868C138.18 200.868 138.684 200.754 139.131 200.527C139.586 200.299 139.948 199.987 140.218 199.589C140.488 199.184 140.623 198.716 140.623 198.183V196.628C140.474 196.706 140.293 196.777 140.08 196.841C139.874 196.905 139.646 196.965 139.398 197.022C139.149 197.079 138.894 197.128 138.631 197.171C138.368 197.214 138.116 197.253 137.874 197.288C137.384 197.366 136.965 197.487 136.617 197.65C136.276 197.814 136.014 198.027 135.829 198.29C135.651 198.545 135.563 198.851 135.563 199.206C135.563 199.745 135.754 200.157 136.138 200.442C136.529 200.726 137.022 200.868 137.619 200.868ZM161.761 192.633L156.978 192.76C156.928 192.419 156.793 192.118 156.573 191.855C156.353 191.585 156.065 191.375 155.71 191.226C155.362 191.07 154.957 190.992 154.496 190.992C153.892 190.992 153.377 191.113 152.951 191.354C152.532 191.596 152.326 191.922 152.333 192.334C152.326 192.654 152.454 192.931 152.717 193.165C152.987 193.4 153.466 193.588 154.155 193.73L157.308 194.326C158.942 194.639 160.156 195.157 160.952 195.882C161.754 196.606 162.159 197.565 162.166 198.758C162.159 199.88 161.825 200.857 161.165 201.688C160.511 202.519 159.617 203.165 158.48 203.627C157.344 204.081 156.044 204.309 154.581 204.309C152.244 204.309 150.401 203.829 149.052 202.87C147.71 201.905 146.943 200.612 146.751 198.993L151.896 198.865C152.01 199.461 152.305 199.916 152.781 200.228C153.256 200.541 153.864 200.697 154.602 200.697C155.27 200.697 155.813 200.573 156.232 200.324C156.651 200.076 156.864 199.745 156.872 199.334C156.864 198.964 156.701 198.67 156.381 198.449C156.062 198.222 155.561 198.045 154.879 197.917L152.024 197.373C150.384 197.075 149.162 196.525 148.359 195.722C147.557 194.912 147.159 193.883 147.166 192.633C147.159 191.539 147.45 190.605 148.04 189.831C148.629 189.049 149.467 188.453 150.554 188.041C151.641 187.629 152.923 187.423 154.4 187.423C156.616 187.423 158.363 187.888 159.641 188.819C160.92 189.742 161.627 191.013 161.761 192.633ZM166.416 210.136C165.791 210.136 165.202 210.086 164.648 209.987C164.094 209.895 163.618 209.77 163.22 209.614L164.371 205.832C164.882 206.003 165.344 206.102 165.756 206.13C166.175 206.159 166.534 206.091 166.832 205.928C167.137 205.772 167.372 205.491 167.535 205.086L167.737 204.596L161.921 187.636H167.375L170.39 199.312H170.561L173.618 187.636H179.105L172.936 205.566C172.638 206.461 172.215 207.249 171.669 207.931C171.129 208.62 170.429 209.16 169.57 209.55C168.718 209.941 167.666 210.136 166.416 210.136Z" fill="#E8E8EF"/>
<path d="M116.166 99.6359C116.166 99.6359 102.982 99.3669 92.892 93.0439C81.053 88.0659 72.537 71.2419 72.806 70.9729C73.075 70.7039 84.551 72.9979 96.121 79.0519C109.843 86.5859 116.166 99.6359 116.166 99.6359Z" fill="#2274AC"/>
<path d="M162.984 71.249C162.849 71.115 160.562 82.012 144.822 91.833C130.427 101.654 115.09 99.636 115.09 99.636C115.09 99.636 119.261 89.277 132.714 79.187C148.454 69.635 162.984 71.249 162.984 71.249Z" fill="#2274AC"/>
<path d="M122.221 123.459C122.221 136.451 116.121 144.298 116.121 144.298C116.121 144.298 109.306 136.835 109.306 123.459C109.306 110.082 115.277 98.832 115.567 98.562C115.771 98.371 122.221 109.522 122.221 123.459Z" fill="#2274AC"/>
</svg>
