<svg width="317" height="327" viewBox="0 0 317 327" fill="none" xmlns="http://www.w3.org/2000/svg">
<rect x="31.8418" y="26.4033" width="250.231" height="261.263" fill="#2274AC"/>
<circle cx="202.15" cy="170.96" r="49.7569" transform="rotate(120 202.15 170.96)" fill="#E8E8EF"/>
<circle cx="202.455" cy="170.434" r="28.6786" transform="rotate(120 202.455 170.434)" fill="#2274AC"/>
<rect x="279.783" y="152.437" width="112.08" height="53.7532" transform="rotate(120 279.783 152.437)" fill="#2274AC"/>
<circle cx="202.454" cy="170.434" r="17.3288" transform="rotate(120 202.454 170.434)" fill="#E8E8EF"/>
<circle cx="159.958" cy="99.9383" r="49.7569" fill="#E8E8EF"/>
<circle cx="159.35" cy="99.9382" r="28.6786" fill="#2274AC"/>
<rect x="105.03" y="50.0813" width="112.08" height="45.3994" fill="#2274AC"/>
<circle cx="159.35" cy="99.9384" r="17.3288" fill="#E8E8EF"/>
<path d="M89.1527 127.735C112.951 113.995 143.382 122.149 157.122 145.947C170.862 169.745 162.708 200.176 138.91 213.916C115.111 227.656 84.6804 219.502 70.9404 195.704C57.2004 171.906 65.3543 141.475 89.1527 127.735Z" fill="#E8E8EF"/>
<circle cx="114.335" cy="171.352" r="28.6786" transform="rotate(-120 114.335 171.352)" fill="#2274AC"/>
<rect x="98.3525" y="243.183" width="112.08" height="45.3994" transform="rotate(-120 98.3525 243.183)" fill="#2274AC"/>
<circle cx="114.447" cy="171.287" r="17.3288" transform="rotate(-120 114.447 171.287)" fill="#E8E8EF"/>
<ellipse cx="114.367" cy="171.367" rx="6.83014" ry="6.72665" transform="rotate(-120 114.367 171.367)" fill="#2274AC"/>
<ellipse cx="202.323" cy="170.472" rx="6.83014" ry="6.72665" transform="rotate(-120 202.323 170.472)" fill="#2274AC"/>
<ellipse cx="159.628" cy="99.9313" rx="6.83014" ry="6.72665" transform="rotate(-120 159.628 99.9313)" fill="#2274AC"/>
<path d="M97.0436 232.182H103.574L109.114 245.69H109.37L114.909 232.182H121.44V254H116.305V240.598H116.124L110.882 253.861H107.601L102.36 240.523H102.179V254H97.0436V232.182ZM127.842 254.277C126.798 254.277 125.871 254.103 125.062 253.755C124.259 253.4 123.623 252.867 123.155 252.157C122.693 251.439 122.462 250.541 122.462 249.461C122.462 248.552 122.622 247.785 122.942 247.16C123.261 246.535 123.701 246.027 124.263 245.637C124.824 245.246 125.47 244.951 126.201 244.753C126.933 244.547 127.714 244.408 128.545 244.337C129.476 244.252 130.225 244.163 130.793 244.071C131.361 243.971 131.773 243.833 132.029 243.655C132.292 243.471 132.423 243.211 132.423 242.878V242.824C132.423 242.277 132.235 241.855 131.858 241.557C131.482 241.258 130.974 241.109 130.335 241.109C129.646 241.109 129.092 241.258 128.673 241.557C128.254 241.855 127.988 242.267 127.874 242.792L123.069 242.622C123.211 241.628 123.577 240.74 124.167 239.959C124.763 239.17 125.58 238.552 126.617 238.105C127.661 237.65 128.915 237.423 130.378 237.423C131.422 237.423 132.384 237.547 133.265 237.796C134.145 238.037 134.912 238.393 135.566 238.861C136.219 239.323 136.723 239.891 137.079 240.566C137.441 241.241 137.622 242.011 137.622 242.878V254H132.721V251.72H132.593C132.302 252.274 131.929 252.743 131.475 253.126C131.027 253.51 130.498 253.797 129.888 253.989C129.284 254.181 128.602 254.277 127.842 254.277ZM129.451 250.868C130.012 250.868 130.516 250.754 130.964 250.527C131.418 250.299 131.78 249.987 132.05 249.589C132.32 249.184 132.455 248.716 132.455 248.183V246.628C132.306 246.706 132.125 246.777 131.912 246.841C131.706 246.905 131.478 246.965 131.23 247.022C130.981 247.079 130.726 247.128 130.463 247.171C130.2 247.214 129.948 247.253 129.706 247.288C129.216 247.366 128.797 247.487 128.449 247.65C128.108 247.814 127.846 248.027 127.661 248.29C127.483 248.545 127.395 248.851 127.395 249.206C127.395 249.745 127.586 250.157 127.97 250.442C128.361 250.726 128.854 250.868 129.451 250.868ZM144.517 244.667V254H139.307V237.636H144.261V240.64H144.442C144.804 239.639 145.422 238.854 146.296 238.286C147.169 237.711 148.21 237.423 149.417 237.423C150.568 237.423 151.566 237.682 152.411 238.201C153.263 238.712 153.924 239.429 154.392 240.353C154.868 241.269 155.103 242.341 155.096 243.57V254H149.886V244.593C149.893 243.684 149.662 242.973 149.194 242.462C148.732 241.951 148.089 241.695 147.265 241.695C146.718 241.695 146.236 241.816 145.817 242.057C145.405 242.292 145.085 242.629 144.858 243.069C144.638 243.51 144.524 244.042 144.517 244.667ZM164.47 254.309C162.758 254.309 161.281 253.971 160.038 253.297C158.802 252.615 157.851 251.645 157.183 250.388C156.523 249.124 156.192 247.622 156.192 245.882C156.192 244.192 156.526 242.714 157.194 241.45C157.861 240.179 158.802 239.192 160.017 238.488C161.231 237.778 162.663 237.423 164.31 237.423C165.475 237.423 166.54 237.604 167.506 237.966C168.472 238.329 169.307 238.865 170.01 239.575C170.713 240.285 171.26 241.162 171.65 242.206C172.041 243.243 172.236 244.433 172.236 245.775V247.075H158.014V244.049H167.389C167.382 243.495 167.251 243.002 166.995 242.569C166.739 242.135 166.388 241.798 165.94 241.557C165.5 241.308 164.992 241.184 164.417 241.184C163.834 241.184 163.312 241.315 162.851 241.578C162.389 241.834 162.023 242.185 161.753 242.633C161.484 243.073 161.342 243.574 161.327 244.135V247.214C161.327 247.881 161.459 248.467 161.722 248.971C161.984 249.469 162.357 249.856 162.84 250.133C163.323 250.41 163.898 250.548 164.566 250.548C165.028 250.548 165.447 250.484 165.823 250.356C166.199 250.228 166.523 250.04 166.793 249.792C167.062 249.543 167.265 249.238 167.4 248.875L172.183 249.014C171.984 250.086 171.548 251.02 170.873 251.816C170.205 252.604 169.328 253.219 168.241 253.659C167.155 254.092 165.898 254.309 164.47 254.309ZM178.01 254.277C176.966 254.277 176.039 254.103 175.229 253.755C174.427 253.4 173.791 252.867 173.323 252.157C172.861 251.439 172.63 250.541 172.63 249.461C172.63 248.552 172.79 247.785 173.109 247.16C173.429 246.535 173.869 246.027 174.43 245.637C174.992 245.246 175.638 244.951 176.369 244.753C177.101 244.547 177.882 244.408 178.713 244.337C179.644 244.252 180.393 244.163 180.961 244.071C181.529 243.971 181.941 243.833 182.197 243.655C182.46 243.471 182.591 243.211 182.591 242.878V242.824C182.591 242.277 182.403 241.855 182.026 241.557C181.65 241.258 181.142 241.109 180.503 241.109C179.814 241.109 179.26 241.258 178.841 241.557C178.422 241.855 178.156 242.267 178.042 242.792L173.237 242.622C173.379 241.628 173.745 240.74 174.335 239.959C174.931 239.17 175.748 238.552 176.785 238.105C177.829 237.65 179.082 237.423 180.546 237.423C181.59 237.423 182.552 237.547 183.433 237.796C184.313 238.037 185.08 238.393 185.734 238.861C186.387 239.323 186.891 239.891 187.247 240.566C187.609 241.241 187.79 242.011 187.79 242.878V254H182.889V251.72H182.761C182.47 252.274 182.097 252.743 181.643 253.126C181.195 253.51 180.666 253.797 180.055 253.989C179.452 254.181 178.77 254.277 178.01 254.277ZM179.619 250.868C180.18 250.868 180.684 250.754 181.131 250.527C181.586 250.299 181.948 249.987 182.218 249.589C182.488 249.184 182.623 248.716 182.623 248.183V246.628C182.474 246.706 182.293 246.777 182.08 246.841C181.874 246.905 181.646 246.965 181.398 247.022C181.149 247.079 180.894 247.128 180.631 247.171C180.368 247.214 180.116 247.253 179.874 247.288C179.384 247.366 178.965 247.487 178.617 247.65C178.276 247.814 178.014 248.027 177.829 248.29C177.651 248.545 177.563 248.851 177.563 249.206C177.563 249.745 177.754 250.157 178.138 250.442C178.529 250.726 179.022 250.868 179.619 250.868ZM203.761 242.633L198.978 242.76C198.928 242.419 198.793 242.118 198.573 241.855C198.353 241.585 198.065 241.375 197.71 241.226C197.362 241.07 196.957 240.992 196.496 240.992C195.892 240.992 195.377 241.113 194.951 241.354C194.532 241.596 194.326 241.922 194.333 242.334C194.326 242.654 194.454 242.931 194.717 243.165C194.987 243.4 195.466 243.588 196.155 243.73L199.308 244.326C200.942 244.639 202.156 245.157 202.952 245.882C203.754 246.606 204.159 247.565 204.166 248.758C204.159 249.88 203.825 250.857 203.165 251.688C202.511 252.519 201.617 253.165 200.48 253.627C199.344 254.081 198.044 254.309 196.581 254.309C194.244 254.309 192.401 253.829 191.052 252.87C189.71 251.905 188.943 250.612 188.751 248.993L193.896 248.865C194.01 249.461 194.305 249.916 194.781 250.228C195.256 250.541 195.864 250.697 196.602 250.697C197.27 250.697 197.813 250.573 198.232 250.324C198.651 250.076 198.864 249.745 198.872 249.334C198.864 248.964 198.701 248.67 198.381 248.449C198.062 248.222 197.561 248.045 196.879 247.917L194.024 247.373C192.384 247.075 191.162 246.525 190.359 245.722C189.557 244.912 189.159 243.883 189.166 242.633C189.159 241.539 189.45 240.605 190.04 239.831C190.629 239.049 191.467 238.453 192.554 238.041C193.641 237.629 194.923 237.423 196.4 237.423C198.616 237.423 200.363 237.888 201.641 238.819C202.92 239.742 203.627 241.013 203.761 242.633ZM208.416 260.136C207.791 260.136 207.202 260.086 206.648 259.987C206.094 259.895 205.618 259.77 205.22 259.614L206.371 255.832C206.882 256.003 207.344 256.102 207.756 256.13C208.175 256.159 208.534 256.091 208.832 255.928C209.137 255.772 209.372 255.491 209.535 255.086L209.737 254.596L203.921 237.636H209.375L212.39 249.312H212.561L215.618 237.636H221.105L214.936 255.566C214.638 256.461 214.215 257.249 213.669 257.931C213.129 258.62 212.429 259.16 211.57 259.55C210.718 259.941 209.666 260.136 208.416 260.136Z" fill="#E8E8EF"/>
<path d="M158.166 149.636C158.166 149.636 144.982 149.367 134.892 143.044C123.053 138.066 114.537 121.242 114.806 120.973C115.075 120.704 126.551 122.998 138.121 129.052C151.843 136.586 158.166 149.636 158.166 149.636Z" fill="#2274AC"/>
<path d="M204.984 121.249C204.849 121.115 202.562 132.012 186.822 141.833C172.427 151.654 157.09 149.636 157.09 149.636C157.09 149.636 161.261 139.277 174.714 129.187C190.454 119.635 204.984 121.249 204.984 121.249Z" fill="#2274AC"/>
<path d="M164.221 173.459C164.221 186.451 158.121 194.298 158.121 194.298C158.121 194.298 151.306 186.835 151.306 173.459C151.306 160.082 157.277 148.832 157.567 148.562C157.771 148.371 164.221 159.522 164.221 173.459Z" fill="#2274AC"/>
</svg>
